<?xml version="1.0" standalone="no"?><!DOCTYPE svg PUBLIC "-//W3C//DTD SVG 1.1//EN" "http://www.w3.org/Graphics/SVG/1.1/DTD/svg11.dtd"><svg t="1556622510451" class="icon" style="" viewBox="0 0 1024 1024" version="1.1" xmlns="http://www.w3.org/2000/svg" p-id="3133" xmlns:xlink="http://www.w3.org/1999/xlink" width="512" height="512"><defs><style type="text/css"></style></defs><path d="M14.672 118.66h994.64V928H14.672z" fill="#FFCE54" p-id="3134"></path><path d="M830 523.344C830 602.156 766.126 666 687.344 666s-142.656-63.844-142.656-142.656c0-78.782 63.876-142.656 142.656-142.656S830 444.562 830 523.344z" fill="#ED5564" p-id="3135"></path><path d="M121 720h316v114h-316z" fill="#A0D468" p-id="3136"></path><path d="M915 364H1016v311h-101z" fill="#F5F7FA" p-id="3137"></path><path d="M106.66 202.66h75.344v77.344H106.66z" fill="#4FC2E9" p-id="3138"></path><path d="M981.312 96c0-11.782-9.532-21.312-21.312-21.312S938.688 84.218 938.688 96H896c0-11.782-9.562-21.312-21.312-21.312H832A21.3 21.3 0 0 0 810.688 96H768c0-11.782-9.562-21.312-21.312-21.312H704A21.3 21.3 0 0 0 682.688 96H640c0-11.782-9.562-21.312-21.312-21.312H576A21.3 21.3 0 0 0 554.688 96H0v853.312h1024V96h-42.688z m0 554.688h-42.626V394.686h42.626v256.002zM896 352v341.312h85.312v213.376H42.672v-768h938.64V352H896z" fill="" p-id="3139"></path><path d="M213.328 181.312h-128v128h128v-128z m-42.656 85.376H128V224h42.672v42.688zM85.328 778.688S85.328 864 170.672 864h298.656v-170.688h-384v85.376zM128 736h298.672v85.312h-256c-22.954 0-30.906-8.812-35.672-17.468-5.39-9.782-6.876-21.594-7-25.532V736zM106.672 650.688c11.782 0 21.328-9.562 21.328-21.376v-256C128 361.562 118.454 352 106.672 352s-21.344 9.562-21.344 21.312v256c0 11.814 9.562 21.376 21.344 21.376zM170.672 373.312v256c0 11.812 9.546 21.376 21.328 21.376s21.328-9.562 21.328-21.376v-256c0-11.75-9.546-21.312-21.328-21.312s-21.328 9.562-21.328 21.312zM448 352c-11.782 0-21.328 9.562-21.328 21.312v256c0 11.812 9.546 21.376 21.328 21.376s21.328-9.562 21.328-21.376v-256c0-11.75-9.546-21.312-21.328-21.312zM362.672 352c-11.782 0-21.344 9.562-21.344 21.312v256c0 11.812 9.562 21.376 21.344 21.376S384 641.126 384 629.312v-256c0-11.75-9.546-21.312-21.328-21.312zM917.312 821.312H533.328c-11.782 0-21.328 9.562-21.328 21.376 0 11.75 9.546 21.312 21.328 21.312h383.984c11.812 0 21.376-9.562 21.376-21.312a21.366 21.366 0 0 0-21.376-21.376zM533.328 736c-11.782 0-21.328 9.562-21.328 21.312 0 11.812 9.546 21.376 21.328 21.376h383.984a21.366 21.366 0 0 0 21.376-21.376c0-11.75-9.562-21.312-21.376-21.312H533.328zM917.312 266.688H533.328C521.546 266.688 512 276.22 512 288s9.546 21.312 21.328 21.312h383.984c11.812 0 21.376-9.532 21.376-21.312s-9.562-21.312-21.376-21.312zM533.328 224h383.984c11.812 0 21.376-9.562 21.376-21.312a21.366 21.366 0 0 0-21.376-21.376H533.328c-11.782 0-21.328 9.562-21.328 21.376 0 11.75 9.546 21.312 21.328 21.312zM960 458.688c11.782 0 21.312-9.562 21.312-21.376 0-11.75-9.532-21.312-21.312-21.312s-21.312 9.562-21.312 21.312c0 11.814 9.53 21.376 21.312 21.376zM960 544c11.782 0 21.312-9.562 21.312-21.312 0-11.812-9.532-21.376-21.312-21.376s-21.312 9.562-21.312 21.376c0 11.75 9.53 21.312 21.312 21.312zM960 586.688c-11.782 0-21.312 9.532-21.312 21.312s9.532 21.312 21.312 21.312 21.312-9.532 21.312-21.312-9.53-21.312-21.312-21.312zM277.328 394.688c11.782 0 21.344-9.562 21.344-21.376 0-11.75-9.562-21.312-21.344-21.312S256 361.562 256 373.312c0 11.814 9.546 21.376 21.328 21.376zM277.328 224c11.782 0 21.344-9.562 21.344-21.312 0-11.812-9.562-21.376-21.344-21.376S256 190.876 256 202.688c0 11.75 9.546 21.312 21.328 21.312zM362.672 266.688c-11.782 0-21.344 9.532-21.344 21.312s9.562 21.312 21.344 21.312S384 299.782 384 288s-9.546-21.312-21.328-21.312zM320 266.688c11.782 0 21.328-9.562 21.328-21.376 0-11.75-9.546-21.312-21.328-21.312s-21.328 9.562-21.328 21.312c0 11.814 9.546 21.376 21.328 21.376zM362.672 224c11.782 0 21.328-9.562 21.328-21.312 0-11.812-9.546-21.376-21.328-21.376s-21.344 9.562-21.344 21.376c0 11.75 9.562 21.312 21.344 21.312zM277.328 309.312c11.782 0 21.344-9.532 21.344-21.312s-9.562-21.312-21.344-21.312S256 276.218 256 288s9.546 21.312 21.328 21.312zM448 266.688c-11.782 0-21.328 9.532-21.328 21.312s9.546 21.312 21.328 21.312 21.328-9.532 21.328-21.312-9.546-21.312-21.328-21.312zM405.328 266.688c11.782 0 21.344-9.562 21.344-21.376 0-11.75-9.562-21.312-21.344-21.312S384 233.562 384 245.312c0 11.814 9.546 21.376 21.328 21.376zM448 181.312c-11.782 0-21.328 9.562-21.328 21.376 0 11.75 9.546 21.312 21.328 21.312s21.328-9.562 21.328-21.312c0-11.812-9.546-21.376-21.328-21.376zM277.328 650.688c11.782 0 21.344-9.562 21.344-21.376 0-11.75-9.562-21.312-21.344-21.312S256 617.562 256 629.312c0 11.814 9.546 21.376 21.328 21.376zM277.328 565.312c11.782 0 21.344-9.532 21.344-21.312v-85.312c0-11.812-9.562-21.376-21.344-21.376S256 446.876 256 458.688V544c0 11.782 9.546 21.312 21.328 21.312z" fill="" p-id="3140"></path><path d="M192 800h170.672c11.782 0 21.328-9.562 21.328-21.312 0-11.812-9.546-21.376-21.328-21.376H192c-11.782 0-21.328 9.562-21.328 21.376C170.672 790.438 180.218 800 192 800zM765.344 373.312C740.844 359.75 712.656 352 682.688 352c-30 0-58.188 7.75-82.688 21.312h-66.672V440C519.75 464.5 512 492.688 512 522.688c0 29.968 7.75 58.156 21.328 82.626V672H600c24.5 13.594 52.688 21.312 82.688 21.312 29.968 0 58.156-7.718 82.626-21.312H832v-66.688c13.594-24.468 21.312-52.656 21.312-82.626 0-30-7.718-58.188-21.312-82.688v-66.688l-66.656 0.002z m18.968 71.656a127.36 127.36 0 0 1 23.5 50.844c-9.688-1.876-21.218-3.812-33.562-5.25-13.5-1.532-26-2.218-37.5-2.062-1-1.562-2.032-3.126-3.156-4.562 15.156-14.25 33.782-28.188 50.718-38.97zM682.688 544c-11.782 0-21.376-9.562-21.376-21.312 0-11.782 9.594-21.376 21.376-21.376 11.75 0 21.312 9.594 21.312 21.376 0 11.75-9.562 21.312-21.312 21.312z m17-148.188a127.144 127.144 0 0 1 52.438 19.376c-8.156 5.532-17.688 12.312-27.376 20.032-10.688 8.468-20 16.812-28 25.032a53.676 53.676 0 0 0-5.532-1c0.218-7.126 0.782-14.75 1.688-22.812 1.782-15.784 4.594-30.378 6.782-40.628z m-43.876 1.688c-1.876 9.688-3.812 21.25-5.25 33.562-1.532 13.562-2.218 26.032-2.062 37.5-1.594 1-3.126 2.062-4.562 3.188-14.25-15.156-28.188-33.812-38.968-50.718a127.774 127.774 0 0 1 50.842-23.532z m-80.624 55.718a452.612 452.612 0 0 0 20 27.376c8.5 10.656 16.844 19.968 25.062 28a53.676 53.676 0 0 0-1 5.532 313.912 313.912 0 0 1-22.812-1.688c-15.782-1.812-30.376-4.562-40.626-6.812a127.072 127.072 0 0 1 19.376-52.408z m5.844 147.158a127.92 127.92 0 0 1-23.532-50.812 443.052 443.052 0 0 0 33.562 5.188c12.438 1.438 24.062 2.126 34.75 2.126h2.75c1 1.562 2.062 3.062 3.188 4.532-15.156 14.246-33.812 28.152-50.718 38.966z m84.594 49.156a127.076 127.076 0 0 1-52.406-19.406 452.612 452.612 0 0 0 27.376-20c10.656-8.468 19.968-16.812 28-25.032 1.812 0.406 3.656 0.718 5.532 0.968a313.912 313.912 0 0 1-1.688 22.812c-1.814 15.814-4.564 30.408-6.814 40.658z m43.936-1.72c1.844-9.688 3.782-21.218 5.188-33.562 1.562-13.5 2.25-26 2.126-37.5 1.562-1 3.062-2.032 4.532-3.156 14.25 15.156 28.156 33.782 38.968 50.718a127.37 127.37 0 0 1-50.814 23.5z m80.564-55.686a433.304 433.304 0 0 0-20-27.376c-8.468-10.688-16.812-20-25.032-28 0.406-1.812 0.718-3.656 0.968-5.532 7.126 0.218 14.75 0.782 22.812 1.688 15.812 1.782 30.406 4.594 40.656 6.782a127.22 127.22 0 0 1-19.404 52.438z" fill="" p-id="3141"></path></svg>
