<?xml version="1.0" standalone="no"?><!DOCTYPE svg PUBLIC "-//W3C//DTD SVG 1.1//EN" "http://www.w3.org/Graphics/SVG/1.1/DTD/svg11.dtd"><svg t="1556623912680" class="icon" style="" viewBox="0 0 1136 1024" version="1.1" xmlns="http://www.w3.org/2000/svg" p-id="5257" xmlns:xlink="http://www.w3.org/1999/xlink" width="568" height="512"><defs><style type="text/css"></style></defs><path d="M572.258462 502.941538m-378.092308 0a378.092308 378.092308 0 1 0 756.184615 0 378.092308 378.092308 0 1 0-756.184615 0Z" fill="#FFA44C" p-id="5258"></path><path d="M568.910769 321.772308m-74.436923 0a74.436923 74.436923 0 1 0 148.873846 0 74.436923 74.436923 0 1 0-148.873846 0Z" fill="#FFFFFF" p-id="5259"></path><path d="M411.766154 491.716923m-62.227692 0a62.227692 62.227692 0 1 0 124.455384 0 62.227692 62.227692 0 1 0-124.455384 0Z" fill="#FFFFFF" p-id="5260"></path><path d="M662.843077 724.086154m-74.436923 0a74.436923 74.436923 0 1 0 148.873846 0 74.436923 74.436923 0 1 0-148.873846 0Z" fill="#FFFFFF" p-id="5261"></path><path d="M1007.064615 188.061538c-43.52-36.824615-116.184615-22.449231-158.72 6.695385-30.72 21.070769-3.544615 72.664615 27.569231 51.396923 19.101538-12.996923 45.489231-26.190769 69.513846-20.676923 40.369231 9.452308 7.089231 39.975385-7.876923 60.061539-26.781538 35.84-57.698462 68.332308-90.584615 98.855384-68.529231 63.212308-146.313846 115.593846-225.870769 164.430769-84.283077 51.593846-170.338462 100.430769-256 149.661539-42.929231 24.615385-88.221538 57.107692-137.255385 67.741538-93.735385 20.48-34.461538-66.56-0.787692-97.28 27.963077-25.403077-12.012308-68.135385-39.778462-42.732307-36.233846 32.886154-86.449231 97.083077-71.876923 150.44923 16.147692 58.88 96.295385 55.729231 142.178462 41.944616 71.483077-21.661538 138.043077-70.104615 202.043077-107.126154 70.301538-40.566154 140.8-80.935385 209.723076-123.864615 116.578462-72.664615 228.824615-154.978462 313.107693-264.27077 28.16-36.824615 71.876923-95.113846 24.615384-135.286154z" fill="#493B4E" p-id="5262"></path><path d="M578.56 115.003077c-213.858462 0-387.938462 174.08-387.938462 387.938461s174.08 387.938462 387.938462 387.938462 387.938462-174.08 387.938462-387.938462-174.08-387.938462-387.938462-387.938461z m3.347692 736.295385c-192.196923 0-348.553846-156.356923-348.553846-348.553847s156.356923-348.553846 348.553846-348.553846 348.553846 156.356923 348.553846 348.553846-156.356923 348.553846-348.553846 348.553847z" fill="#493B4E" p-id="5263"></path></svg>
