<?xml version="1.0" standalone="no"?><!DOCTYPE svg PUBLIC "-//W3C//DTD SVG 1.1//EN" "http://www.w3.org/Graphics/SVG/1.1/DTD/svg11.dtd"><svg t="1556500191383" class="icon" style="" viewBox="0 0 1024 1024" version="1.1" xmlns="http://www.w3.org/2000/svg" p-id="13178" xmlns:xlink="http://www.w3.org/1999/xlink" width="512" height="512"><defs><style type="text/css"></style></defs><path d="M960 256l-256 0 0-64c0-35.2-28.8-64-64-64l-256 0c-35.2 0-64 28.8-64 64l0 64-256 0c-35.2 0-64 28.8-64 64l0 576c0 35.2 28.8 64 64 64l896 0c35.2 0 64-28.8 64-64l0-576c0-35.2-28.8-64-64-64zM384 192.128c0.032-0.032 0.064-0.096 0.128-0.128l255.776 0c0.032 0.032 0.096 0.064 0.128 0.128l0 63.872-256 0 0-63.872zM960 512l-128 0 0 96c0 17.6-14.4 32-32 32l-64 0c-17.6 0-32-14.4-32-32l0-96-384 0 0 96c0 17.6-14.4 32-32 32l-64 0c-17.6 0-32-14.4-32-32l0-96-128 0 0-64 896 0 0 64z" p-id="13179" fill="#000000"></path></svg>
