<?xml version="1.0" standalone="no"?><!DOCTYPE svg PUBLIC "-//W3C//DTD SVG 1.1//EN" "http://www.w3.org/Graphics/SVG/1.1/DTD/svg11.dtd"><svg t="1556500452187" class="icon" style="" viewBox="0 0 1024 1024" version="1.1" xmlns="http://www.w3.org/2000/svg" p-id="15287" xmlns:xlink="http://www.w3.org/1999/xlink" width="512" height="512"><defs><style type="text/css"></style></defs><path d="M170.666667 128c-47.36 0-85.333333 37.973333-85.333334 85.333333v426.666667a85.333333 85.333333 0 0 0 85.333334 85.333333h341.333333v213.333334l128-128 128 128v-213.333334h85.333333a85.333333 85.333333 0 0 0 85.333334-85.333333V213.333333a85.333333 85.333333 0 0 0-85.333334-85.333333H170.666667m341.333333 85.333333l128 85.333334 128-85.333334v149.333334l128 64-128 64V640l-128-85.333333-128 85.333333v-149.333333L384 426.666667l128-64V213.333333M170.666667 213.333333h213.333333v85.333334H170.666667V213.333333m0 170.666667h128v85.333333H170.666667V384m0 170.666667h213.333333v85.333333H170.666667v-85.333333z" fill="#000000" p-id="15288"></path></svg>