<?xml version="1.0" standalone="no"?><!DOCTYPE svg PUBLIC "-//W3C//DTD SVG 1.1//EN" "http://www.w3.org/Graphics/SVG/1.1/DTD/svg11.dtd"><svg t="1556501904995" class="icon" style="" viewBox="0 0 1024 1024" version="1.1" xmlns="http://www.w3.org/2000/svg" p-id="21873" xmlns:xlink="http://www.w3.org/1999/xlink" width="512" height="512"><defs><style type="text/css"></style></defs><path d="M512 1024C229.68 1024 0 794.32 0 512S229.68 0 512 0s512 229.68 512 512-229.68 512-512 512z m0-992C247.328 32 32 247.328 32 512s215.328 480 480 480 480-215.328 480-480S776.672 32 512 32z" fill="#000000" p-id="21874"></path><path d="M368 1002.72a16 16 0 0 1-16-16V784c0-35.296-28.704-64-64-64h-48a16 16 0 0 1 0-32h48c52.944 0 96 43.056 96 96v202.72a16 16 0 0 1-16 16z" fill="#000000" p-id="21875"></path><path d="M192 768c-35.296 0-64-28.704-64-64s28.704-64 64-64 64 28.704 64 64-28.704 64-64 64z m0-96c-17.648 0-32 14.352-32 32s14.352 32 32 32 32-14.352 32-32-14.352-32-32-32zM656 1002.72a16 16 0 0 1-16-16V672c0-52.944 43.056-96 96-96h48a16 16 0 0 1 0 32h-48c-35.296 0-64 28.704-64 64v314.72a16 16 0 0 1-16 16z" fill="#000000" p-id="21876"></path><path d="M832 656c-35.296 0-64-28.704-64-64s28.704-64 64-64 64 28.704 64 64-28.704 64-64 64z m0-96c-17.648 0-32 14.352-32 32s14.352 32 32 32 32-14.352 32-32-14.352-32-32-32zM464 1021.76a16 16 0 0 1-16-16V528c0-35.296-28.704-64-64-64H20.16a16 16 0 0 1 0-32H384c52.944 0 96 43.056 96 96v477.76a16 16 0 0 1-16 16z" fill="#000000" p-id="21877"></path><path d="M560 797.76a16 16 0 0 1-16-16V352c0-35.296-28.704-64-64-64h-48a16 16 0 0 1 0-32h48c52.944 0 96 43.056 96 96v429.76a16 16 0 0 1-16 16z" fill="#000000" p-id="21878"></path><path d="M384 336c-35.296 0-64-28.704-64-64s28.704-64 64-64 64 28.704 64 64-28.704 64-64 64z m0-96c-17.648 0-32 14.352-32 32s14.352 32 32 32 32-14.352 32-32-14.352-32-32-32zM816 384h-48c-52.944 0-96-43.056-96-96V48.16a16 16 0 0 1 32 0V288c0 35.296 28.704 64 64 64h48a16 16 0 0 1 0 32z" fill="#000000" p-id="21879"></path><path d="M864 432c-35.296 0-64-28.704-64-64s28.704-64 64-64 64 28.704 64 64-28.704 64-64 64z m0-96c-17.648 0-32 14.352-32 32s14.352 32 32 32 32-14.352 32-32-14.352-32-32-32zM560 864c-4.16 0-8.32-1.76-11.36-4.64-2.88-3.04-4.64-7.2-4.64-11.36 0-4.16 1.76-8.32 4.64-11.36 6.08-5.92 16.64-5.92 22.72 0 2.88 3.04 4.64 7.2 4.64 11.36 0 4.32-1.76 8.32-4.64 11.36-3.04 2.88-7.2 4.64-11.36 4.64zM560 928c-4.16 0-8.32-1.76-11.36-4.64-2.88-3.04-4.64-7.2-4.64-11.36 0-4.16 1.76-8.32 4.64-11.36 6.08-5.92 16.8-5.92 22.72 0 2.88 3.04 4.64 7.2 4.64 11.36 0 4.16-1.76 8.32-4.64 11.36-3.04 2.88-7.2 4.64-11.36 4.64zM560 1021.76a16 16 0 0 1-16-16v-31.68a16 16 0 0 1 32 0v31.68a16 16 0 0 1-16 16z" fill="#000000" p-id="21880"></path></svg>