<?xml version="1.0" standalone="no"?><!DOCTYPE svg PUBLIC "-//W3C//DTD SVG 1.1//EN" "http://www.w3.org/Graphics/SVG/1.1/DTD/svg11.dtd"><svg t="1556499430449" class="icon" style="" viewBox="0 0 1024 1024" version="1.1" xmlns="http://www.w3.org/2000/svg" p-id="6920" xmlns:xlink="http://www.w3.org/1999/xlink" width="512" height="512"><defs><style type="text/css"></style></defs><path d="M1024 405.714286v453.714285q0 37.714286-26.857143 64.571429t-64.571428 26.857143H91.428571q-37.714286 0-64.571428-26.857143T0 859.428571V405.714286q25.142857 28 57.714286 49.714285 206.857143 140.571429 284 197.142858 32.571429 24 52.857143 37.428571t54 27.428571 62.857142 14h1.142858q29.142857 0 62.857142-14t54-27.428571 52.857143-37.428571q97.142857-70.285714 284.571429-197.142858 32.571429-22.285714 57.142857-49.714285z m0-168q0 45.142857-28 86.285714t-69.714286 70.285714q-214.857143 149.142857-267.428571 185.714286-5.714286 4-24.285714 17.428571t-30.857143 21.714286-29.714286 18.571429-32.857143 15.428571-28.571428 5.142857h-1.142858q-13.142857 0-28.571428-5.142857t-32.857143-15.428571-29.714286-18.571429-30.857143-21.714286T365.142857 580q-52-36.571429-149.714286-104.285714T98.285714 394.285714q-35.428571-24-66.857143-66T0 250.285714q0-44.571429 23.714286-74.285714T91.428571 146.285714h841.142858q37.142857 0 64.285714 26.857143t27.142857 64.571429z" p-id="6921" fill="#000000"></path></svg>