<?xml version="1.0" standalone="no"?><!DOCTYPE svg PUBLIC "-//W3C//DTD SVG 1.1//EN" "http://www.w3.org/Graphics/SVG/1.1/DTD/svg11.dtd"><svg t="1556503329180" class="icon" style="" viewBox="0 0 1024 1024" version="1.1" xmlns="http://www.w3.org/2000/svg" p-id="34332" xmlns:xlink="http://www.w3.org/1999/xlink" width="512" height="512"><defs><style type="text/css"></style></defs><path d="M208.412401 389.336501h245.205368v64.220454H266.794631v175.146692h116.764462v-58.382231h-58.382231v-58.382231h128.440907v180.984915H208.412401V389.336501zM208.412401 208.351586v58.747119H150.1518v-117.12935h723.93966v117.12935c-19.095855 0-38.313339-0.364889-58.382231-0.364889v-58.38223H208.412401zM150.03017 756.779665h58.260601v57.895712h606.93194v-57.895712h58.625489v117.12935H149.90854c0.12163-38.556598 0.12163-77.478085 0.12163-117.12935zM693.106545 511.939185v-58.38223h64.220453v-64.220454h58.382231v303.587599h-58.382231V511.939185h-70.058676 5.838223zM632.048462 512.425704c-19.339114 0-41.110821-0.486519-61.544602-0.486519v180.984915h-58.38223V389.336501h58.38223v64.220454h58.382231v58.38223c-0.12163 0.12163 3.162371 0.486519 3.162371 0.486519z" fill="#000000" p-id="34333"></path><path d="M693.106545 511.939185v58.382231h-64.220454v-58.382231c19.704003 0.12163 44.394821-0.12163 64.220454 0z" fill="#000000" p-id="34334"></path></svg>
