<?xml version="1.0" standalone="no"?><!DOCTYPE svg PUBLIC "-//W3C//DTD SVG 1.1//EN" "http://www.w3.org/Graphics/SVG/1.1/DTD/svg11.dtd"><svg t="1621352578073" class="icon" viewBox="0 0 1024 1024" version="1.1" xmlns="http://www.w3.org/2000/svg" p-id="1220" xmlns:xlink="http://www.w3.org/1999/xlink" width="200" height="200"><defs><style type="text/css"></style></defs><path d="M86.426071 880.689196l857.297392 0L943.723463 143.310804 86.426071 143.310804 86.426071 880.689196zM894.990451 831.049128 135.158058 831.049128 135.158058 202.75528l759.832393 0L894.990451 831.049128z" p-id="1221"></path><path d="M237.399195 351.188646l90.253644 0 0 88.078759-90.253644 0 0-88.078759Z" p-id="1222"></path><path d="M357.634895 387.359183l443.812936 0 0 18.134977-443.812936 0 0-18.134977Z" p-id="1223"></path><path d="M237.399195 489.780707l90.253644 0 0 88.076709-90.253644 0 0-88.076709Z" p-id="1224"></path><path d="M357.634895 525.952269l443.812936 0 0 18.021211-443.812936 0 0-18.021211Z" p-id="1225"></path><path d="M237.399195 628.27745l90.253644 0 0 88.134105-90.253644 0 0-88.134105Z" p-id="1226"></path><path d="M357.634895 664.488984l443.812936 0 0 18.058108-443.812936 0 0-18.058108Z" p-id="1227"></path></svg>