<?xml version="1.0" standalone="no"?><!DOCTYPE svg PUBLIC "-//W3C//DTD SVG 1.1//EN" "http://www.w3.org/Graphics/SVG/1.1/DTD/svg11.dtd"><svg t="1556502940285" class="icon" style="" viewBox="0 0 1024 1024" version="1.1" xmlns="http://www.w3.org/2000/svg" p-id="23616" xmlns:xlink="http://www.w3.org/1999/xlink" width="512" height="512"><defs><style type="text/css"></style></defs><path d="M810.666667 957.44H85.333333a17.066667 17.066667 0 1 1 0-34.133333h725.333334c30.839467 0 56.490667-10.6496 78.3872-32.529067C910.9504 868.864 921.6 843.229867 921.6 812.373333s-10.6496-56.5248-32.546133-78.404266S841.5232 701.44 810.666667 701.44s-56.490667 10.6496-78.3872 32.529067a109.568 109.568 0 0 0-26.641067 42.1376 17.066667 17.066667 0 0 1-32.3072-11.076267 143.36 143.36 0 0 1 34.798933-55.1936c28.2112-28.2112 62.72-42.530133 102.519467-42.530133s74.308267 14.318933 102.519467 42.530133C941.4144 738.048 955.733333 772.5568 955.733333 812.373333s-14.318933 74.308267-42.5472 102.536534S850.449067 957.44 810.666667 957.44z m-469.333334-85.333333a17.032533 17.032533 0 0 1-15.547733-24.081067l39.253333-87.04a17.0496 17.0496 0 1 1 31.112534 14.0288l-39.253334 87.04c-2.850133 6.314667-9.079467 10.052267-15.5648 10.052267z m74.257067-166.4a17.032533 17.032533 0 0 1-13.602133-6.741334 361.864533 361.864533 0 0 1-49.237334-86.869333C333.8752 566.135467 324.266667 515.720533 324.266667 462.506667c0-108.8512 39.287467-203.3664 116.7872-280.866134 67.464533-66.8672 148.189867-105.2672 239.9744-114.141866a16.930133 16.930133 0 0 1 13.124266 4.352 16.913067 16.913067 0 0 1 4.727467 7.236266c32.853333 54.152533 49.493333 115.6608 49.493333 182.8864 0 99.2256-35.549867 185.105067-105.659733 255.266134-53.504 52.8896-115.592533 86.3232-184.6784 99.4304a16.861867 16.861867 0 0 1-10.103467-1.160534 17.066667 17.066667 0 0 1-8.704-22.510933L655.086933 105.472c-71.765333 12.765867-135.543467 46.4384-189.952 100.352C394.325333 276.650667 358.4 363.025067 358.4 462.506667c0 48.7424 8.7552 94.788267 26.026667 136.874666a327.4752 327.4752 0 0 0 44.731733 78.916267 17.066667 17.066667 0 0 1-13.568 27.409067zM684.270933 123.869867L484.5056 575.010133c49.3056-15.121067 94.293333-42.5984 134.126933-81.9712 63.419733-63.453867 95.607467-141.2096 95.607467-231.0656 0-49.885867-10.069333-96.187733-29.969067-138.103466z" p-id="23617" fill="#000000"></path><path d="M380.5696 802.1504a34.133333 34.133333 0 0 1-31.214933-47.9232l74.257066-168.1408a34.133333 34.133333 0 1 1 62.429867 27.5968l-74.222933 168.072533a34.133333 34.133333 0 0 1-31.249067 20.394667z" p-id="23618" fill="#000000"></path></svg>