<?xml version="1.0" standalone="no"?><!DOCTYPE svg PUBLIC "-//W3C//DTD SVG 1.1//EN" "http://www.w3.org/Graphics/SVG/1.1/DTD/svg11.dtd"><svg t="1556622094211" class="icon" style="" viewBox="0 0 1024 1024" version="1.1" xmlns="http://www.w3.org/2000/svg" p-id="4073" xmlns:xlink="http://www.w3.org/1999/xlink" width="512" height="512"><defs><style type="text/css"></style></defs><path d="M931.3 659.4H87.4V192.3c0-33.5 27.2-60.7 60.7-60.7h722.6c33.5 0 60.7 27.2 60.7 60.7v467.1z" fill="#FAFCFB" p-id="4074"></path><path d="M931.3 672.4H87.4c-7.2 0-13-5.8-13-13V192.3c0-40.6 33-73.7 73.7-73.7h722.6c40.6 0 73.7 33 73.7 73.7v467.1c-0.1 7.2-5.9 13-13.1 13z m-830.9-26h817.9V192.3c0-26.3-21.4-47.7-47.7-47.7H148.1c-26.3 0-47.7 21.4-47.7 47.7v454.1z" fill="#0F0F0F" p-id="4075"></path><path d="M870.6 762.2H148.1c-33.5 0-60.7-27.2-60.7-60.7v-50h843.9v50c0 33.6-27.2 60.7-60.7 60.7z" fill="#9DC6AF" p-id="4076"></path><path d="M870.6 775.2H148.1c-40.6 0-73.7-33-73.7-73.7v-63h869.9v63c0 40.7-33 73.7-73.7 73.7zM100.4 664.6v37c0 26.3 21.4 47.7 47.7 47.7h722.6c26.3 0 47.7-21.4 47.7-47.7v-37h-818z" fill="#191919" p-id="4077"></path><path d="M509.4 700.3m-26.5 0a26.5 26.5 0 1 0 53 0 26.5 26.5 0 1 0-53 0Z" fill="#FAFCFB" p-id="4078"></path><path d="M345.5 353.4m-102.5 0a102.5 102.5 0 1 0 205 0 102.5 102.5 0 1 0-205 0Z" fill="#FAFCFB" p-id="4079"></path><path d="M345.5 468.9c-63.7 0-115.5-51.8-115.5-115.5s51.8-115.5 115.5-115.5S461 289.7 461 353.4s-51.7 115.5-115.5 115.5z m0-205.1c-49.4 0-89.5 40.2-89.5 89.5s40.2 89.5 89.5 89.5 89.5-40.2 89.5-89.5-40.1-89.5-89.5-89.5z" fill="#C9D3CD" p-id="4080"></path><path d="M345.5 353.4m-28.3 0a28.3 28.3 0 1 0 56.6 0 28.3 28.3 0 1 0-56.6 0Z" fill="#0F0F0F" p-id="4081"></path><path d="M673.2 353.4m-102.5 0a102.5 102.5 0 1 0 205 0 102.5 102.5 0 1 0-205 0Z" fill="#FAFCFB" p-id="4082"></path><path d="M673.2 468.9c-63.7 0-115.5-51.8-115.5-115.5s51.8-115.5 115.5-115.5 115.5 51.8 115.5 115.5-51.8 115.5-115.5 115.5z m0-205.1c-49.4 0-89.5 40.2-89.5 89.5s40.2 89.5 89.5 89.5 89.5-40.2 89.5-89.5-40.2-89.5-89.5-89.5z" fill="#C9D3CD" p-id="4083"></path><path d="M673.2 353.4m-28.3 0a28.3 28.3 0 1 0 56.6 0 28.3 28.3 0 1 0-56.6 0Z" fill="#0F0F0F" p-id="4084"></path><path d="M560.9 465.6c0 28.3-23.2 51.5-51.5 51.5s-51.5-23.2-51.5-51.5" fill="#FAFCFB" p-id="4085"></path><path d="M509.4 530.2c-35.6 0-64.5-29-64.5-64.5 0-7.2 5.8-13 13-13s13 5.8 13 13c0 21.3 17.3 38.5 38.5 38.5 21.3 0 38.5-17.3 38.5-38.5 0-7.2 5.8-13 13-13s13 5.8 13 13c0 35.5-29 64.5-64.5 64.5z" fill="#141414" p-id="4086"></path><path d="M423.6 762.2h171.5v89.6H423.6z" fill="#FAFCFB" p-id="4087"></path><path d="M595.1 864.8H423.6c-7.2 0-13-5.8-13-13v-89.6c0-7.2 5.8-13 13-13h171.5c7.2 0 13 5.8 13 13v89.6c0 7.2-5.8 13-13 13z m-158.5-26h145.5v-63.6H436.6v63.6z" fill="#141414" p-id="4088"></path><path d="M667.3 898.9H351.4c-18.8 0-34.2-15.4-34.2-34.2 0-18.8 15.4-34.2 34.2-34.2h315.8c18.8 0 34.2 15.4 34.2 34.2 0 18.9-15.3 34.2-34.1 34.2z" fill="#FAFCFB" p-id="4089"></path><path d="M667.3 911.9H351.4c-26 0-47.2-21.2-47.2-47.2s21.2-47.2 47.2-47.2h315.8c26 0 47.2 21.2 47.2 47.2s-21.1 47.2-47.1 47.2z m-315.9-68.3c-11.7 0-21.2 9.5-21.2 21.2s9.5 21.2 21.2 21.2h315.8c11.7 0 21.2-9.5 21.2-21.2s-9.5-21.2-21.2-21.2H351.4z" fill="#141414" p-id="4090"></path></svg>
